<svg xmlns="http://www.w3.org/2000/svg" viewBox="0 0 22.42 20.49"><g id="Layer_2" data-name="Layer 2"><g id="Set_of_64_UI_Icons" data-name="Set of 64 UI Icons"><g id="Down_Arrow_1" data-name="Down Arrow 1"><path d="M11.92,18.92V15.76a1.46,1.46,0,0,1,1.37-1.47h7.23a1.4,1.4,0,0,0,1.4-1.4V7.69a1.4,1.4,0,0,0-1.4-1.4H13.29a1.46,1.46,0,0,1-1.37-1.47V1.55A1,1,0,0,0,10.35.71L.94,9.13a1.6,1.6,0,0,0,0,2.21l9.41,8.42A1,1,0,0,0,11.92,18.92Z" style="fill:none;stroke:#000;stroke-miterlimit:10"/></g></g></g></svg>